<svg width="64" height="46" viewBox="0 0 64 46" fill="none" xmlns="http://www.w3.org/2000/svg">
<rect x="58.0736" y="45.5705" width="45.5705" height="5.33286" rx="2.66643" transform="rotate(-90 58.0736 45.5705)" fill="#E9EDF7"/>
<rect x="58.0736" y="45.5705" width="10.8668" height="5.33286" rx="2.66643" transform="rotate(-90 58.0736 45.5705)" fill="#254472"/>
<rect x="43.5549" y="45.5705" width="45.5705" height="5.33281" rx="2.66641" transform="rotate(-90 43.5549 45.5705)" fill="#E9EDF7"/>
<rect x="43.5549" y="45.5705" width="41.364" height="5.33287" rx="2.66643" transform="rotate(-90 43.5549 45.5705)" fill="#254472"/>
<rect x="29.0368" y="45.5705" width="45.5705" height="5.33286" rx="2.66643" transform="rotate(-90 29.0368 45.5705)" fill="#E9EDF7"/>
<rect x="29.0368" y="45.5705" width="31.5488" height="5.33287" rx="2.66643" transform="rotate(-90 29.0368 45.5705)" fill="#254472"/>
<rect x="14.5188" y="45.5705" width="45.5705" height="5.33287" rx="2.66644" transform="rotate(-90 14.5188 45.5705)" fill="#E9EDF7"/>
<rect x="14.5188" y="45.5705" width="23.4863" height="5.33287" rx="2.66643" transform="rotate(-90 14.5188 45.5705)" fill="#254472"/>
<rect x="7.62939e-06" y="45.5705" width="45.5705" height="5.33287" rx="2.66644" transform="rotate(-90 7.62939e-06 45.5705)" fill="#E9EDF7"/>
<rect x="7.62939e-06" y="45.5705" width="37.508" height="5.33288" rx="2.66644" transform="rotate(-90 7.62939e-06 45.5705)" fill="#254472"/>
</svg>
