<svg width="34" height="32" viewBox="0 0 34 32" fill="none" xmlns="http://www.w3.org/2000/svg">
<path d="M24.1605 0.000488288C24.9394 0.000435581 25.6888 0.308419 26.2549 0.861261C26.8211 1.4141 27.1611 2.16989 27.2052 2.97358L27.2099 3.152V5.81867H28.8519C31.5728 5.81867 33.7778 8.09746 33.7778 10.9096V24.0005C33.7778 24.8363 33.4565 25.6379 32.8846 26.2289C32.3128 26.82 31.5371 27.152 30.7284 27.152H27.2099V28.849C27.2099 29.6848 26.8886 30.4864 26.3167 31.0774C25.7449 31.6685 24.9692 32.0005 24.1605 32.0005H9.61728C8.80854 32.0005 8.03292 31.6685 7.46105 31.0774C6.88917 30.4864 6.5679 29.6848 6.5679 28.849V27.152H3.04938C2.24064 27.152 1.46501 26.82 0.893143 26.2289C0.321273 25.6379 0 24.8363 0 24.0005V10.9096C0 8.09746 2.20494 5.81867 4.92593 5.81867H6.5679V3.152C6.56785 2.34702 6.86585 1.57253 7.40078 0.987416C7.9357 0.402298 8.667 0.0509112 9.44464 0.00533688L9.61728 0.000488288H24.1605ZM8.91358 28.849C8.91358 29.2504 9.22884 29.5762 9.61728 29.5762H24.1605C24.3471 29.5762 24.5261 29.4996 24.6581 29.3632C24.7901 29.2268 24.8642 29.0419 24.8642 28.849V20.6065C24.8642 20.4137 24.7901 20.2287 24.6581 20.0923C24.5261 19.9559 24.3471 19.8793 24.1605 19.8793H9.61728C9.43065 19.8793 9.25166 19.9559 9.11969 20.0923C8.98772 20.2287 8.91358 20.4137 8.91358 20.6065V28.849ZM24.1605 2.42473H9.61728C9.44723 2.42474 9.28294 2.48838 9.15478 2.6039C9.02662 2.71941 8.94328 2.87898 8.92015 3.05309L8.91358 3.152V5.81867H24.8642V3.152C24.8642 2.97626 24.8026 2.80646 24.6908 2.67401C24.5791 2.54156 24.4247 2.45542 24.2562 2.43152L24.1605 2.42473Z" fill="#F6A600"/>
</svg>
