<svg width="33" height="32" viewBox="0 0 33 32" fill="none" xmlns="http://www.w3.org/2000/svg">
<path d="M20.8708 15.2008L8.2207 12.8008V30.5349C8.22085 30.7276 8.25624 30.9183 8.32484 31.0963C8.39344 31.2742 8.49391 31.4358 8.62051 31.572C8.74711 31.7081 8.89737 31.816 9.06271 31.8896C9.22805 31.9632 9.40522 32.001 9.58412 32.0008H31.4124C31.5915 32.0013 31.7689 31.9637 31.9345 31.8903C32.1001 31.8169 32.2507 31.709 32.3775 31.5728C32.5044 31.4367 32.605 31.2749 32.6738 31.0968C32.7425 30.9188 32.778 30.7278 32.7781 30.5349V24.0008L20.8708 15.2008Z" fill="#185C37"/>
<path d="M20.8708 5.16743e-07H9.58412C9.40522 -0.000161178 9.22805 0.0376258 9.06271 0.111204C8.89737 0.184782 8.74711 0.292711 8.62051 0.428827C8.49391 0.564944 8.39344 0.726583 8.32484 0.904515C8.25624 1.08245 8.22085 1.27319 8.2207 1.46585V8.00001L20.8708 16L27.569 18.4L32.7781 16V8.00001L20.8708 5.16743e-07Z" fill="#21A366"/>
<path d="M8.2207 8H20.8708V16H8.2207V8Z" fill="#107C41"/>
<path opacity="0.1" d="M17.2743 6.40039H8.2207V26.4004H17.2743C17.6351 26.3985 17.9806 26.2435 18.236 25.9692C18.4914 25.6948 18.6362 25.3231 18.6389 24.9346V7.86624C18.6362 7.47773 18.4914 7.10602 18.236 6.83164C17.9806 6.55726 17.6351 6.40232 17.2743 6.40039Z" fill="black"/>
<path opacity="0.2" d="M16.5303 7.19922H8.2207V27.1992H16.5303C16.8911 27.1973 17.2366 27.0424 17.492 26.768C17.7474 26.4936 17.8922 26.1219 17.8949 25.7334V8.66507C17.8922 8.27656 17.7474 7.90485 17.492 7.63047C17.2366 7.35609 16.8911 7.20115 16.5303 7.19922Z" fill="black"/>
<path opacity="0.2" d="M16.5303 7.19922H8.2207V25.5992H16.5303C16.8911 25.5973 17.2366 25.4424 17.492 25.168C17.7474 24.8936 17.8922 24.5219 17.8949 24.1334V8.66507C17.8922 8.27656 17.7474 7.90485 17.492 7.63047C17.2366 7.35609 16.8911 7.20115 16.5303 7.19922Z" fill="black"/>
<path opacity="0.2" d="M15.7863 7.19922H8.2207V25.5992H15.7863C16.1471 25.5973 16.4926 25.4424 16.748 25.168C17.0034 24.8936 17.1482 24.5219 17.1509 24.1334V8.66507C17.1482 8.27656 17.0034 7.90485 16.748 7.63047C16.4926 7.35609 16.1471 7.20115 15.7863 7.19922Z" fill="black"/>
<path d="M2.1419 7.19922H15.7852C16.1466 7.19889 16.4933 7.35311 16.7492 7.62797C17.005 7.90284 17.1491 8.27586 17.1497 8.66507V23.3334C17.1491 23.7226 17.005 24.0956 16.7492 24.3705C16.4933 24.6453 16.1466 24.7996 15.7852 24.7992H2.1419C1.96291 24.7996 1.78561 24.7619 1.62014 24.6884C1.45468 24.6149 1.30428 24.507 1.17756 24.3708C1.05083 24.2347 0.950257 24.073 0.881587 23.895C0.812916 23.717 0.777494 23.5261 0.777344 23.3334V8.66507C0.777494 8.4723 0.812916 8.28146 0.881587 8.10345C0.950257 7.92544 1.05083 7.76374 1.17756 7.62761C1.30428 7.49148 1.45468 7.38358 1.62014 7.31007C1.78561 7.23656 1.96291 7.1989 2.1419 7.19922Z" fill="url(#paint0_linear_3506_12258)"/>
<path d="M5.00586 20.7669L7.87554 15.9866L5.247 11.2334H7.35783L8.7921 14.2771C8.92467 14.5651 9.02067 14.7792 9.0641 14.922H9.08353C9.17724 14.6906 9.27667 14.4679 9.38066 14.25L10.9144 11.2383H12.8572L10.1612 15.9645L12.9258 20.7706H10.8584L9.20124 17.434C9.1243 17.2906 9.05891 17.1403 9.00581 16.9848H8.97838C8.93006 17.1363 8.86564 17.2812 8.78639 17.4168L7.08012 20.7669H5.00586Z" fill="#FAFAFA"/>
<path d="M31.4119 2.0661e-06H20.8691V8.00001H32.7764V1.46585C32.7763 1.27309 32.7409 1.08224 32.6722 0.904232C32.6035 0.726219 32.5029 0.564526 32.3762 0.428393C32.2495 0.29226 32.0991 0.184358 31.9336 0.110852C31.7682 0.0373462 31.5909 -0.00032143 31.4119 2.0661e-06Z" fill="#33C481"/>
<path d="M20.8691 16H32.7764V24H20.8691V16Z" fill="#107C41"/>
<defs>
<linearGradient id="paint0_linear_3506_12258" x1="3.6276" y1="6.04722" x2="15.5292" y2="25.1865" gradientUnits="userSpaceOnUse">
<stop stop-color="#18884F"/>
<stop offset="0.5" stop-color="#117E43"/>
<stop offset="1" stop-color="#0B6631"/>
</linearGradient>
</defs>
</svg>
