<svg width="20" height="13" viewBox="0 0 20 13" fill="none" xmlns="http://www.w3.org/2000/svg">
<path d="M8.39551 5.71399H8.28751L8.5275 5.582C9.02498 5.32537 9.4136 4.89842 9.62243 4.37907C9.81123 3.83432 9.86107 3.25105 9.76742 2.68217C9.71197 2.17896 9.52184 1.70001 9.21704 1.29579C8.91225 0.891567 8.50408 0.577027 8.03553 0.385303C7.4279 0.123717 6.77214 -0.00743532 6.11064 0.00032536H0V12.3536H5.58167C6.11341 12.3543 6.64427 12.3102 7.16858 12.2216C7.7412 12.1408 8.28448 11.9179 8.7489 11.5733C9.21331 11.2287 9.58409 10.7733 9.82742 10.2487C10.1917 9.50231 10.2973 8.65588 10.1274 7.84286C10.0562 7.3652 9.8578 6.91547 9.55311 6.54077C9.24842 6.16606 8.8486 5.88016 8.39551 5.71299V5.71399ZM2.89983 2.1542H5.30569C5.71174 2.15367 6.11613 2.20611 6.50862 2.31019C6.72196 2.36055 6.91381 2.47736 7.05649 2.64377C7.19918 2.81018 7.28535 3.0176 7.30257 3.23614C7.35186 3.48234 7.35186 3.73588 7.30257 3.98209C7.26806 4.12117 7.20403 4.25119 7.11483 4.36334C7.02563 4.47549 6.91335 4.56713 6.7856 4.63205C6.41323 4.81988 5.99947 4.91068 5.58267 4.89604H2.87483L2.89983 2.1542ZM7.55456 9.05779C7.5004 9.34947 7.35467 9.61628 7.13852 9.81948C6.92238 10.0227 6.64709 10.1517 6.35263 10.1877C6.09113 10.2403 5.82537 10.2687 5.55867 10.2727H2.87483V7.00091H5.73766C6.04496 7.00158 6.34993 7.05433 6.63961 7.1569C6.89743 7.23864 7.12366 7.39812 7.28729 7.61348C7.45091 7.82884 7.54392 8.08954 7.55356 8.35983C7.58556 8.59139 7.58556 8.82624 7.55356 9.05779H7.55456ZM19.9928 8.25184C20.0048 8.22784 20.0048 8.20384 19.9688 8.22784V6.89292C19.9573 6.28112 19.8176 5.67853 19.5588 5.12402C19.1682 4.29039 18.4829 3.63076 17.635 3.27213C16.7023 2.88865 15.6775 2.78814 14.6881 2.98315C13.9364 3.08742 13.2316 3.40954 12.6609 3.90977C12.0901 4.40999 11.6783 5.06641 11.4763 5.79798C11.1251 6.92026 11.0754 8.11523 11.3323 9.26278C11.4524 9.91003 11.7525 10.5103 12.1983 10.9947C12.7674 11.5741 13.482 11.9897 14.2672 12.1976C15.0232 12.404 15.8148 12.4449 16.588 12.3176C17.5598 12.1988 18.4544 11.7282 19.1029 10.9947C19.4262 10.6516 19.6687 10.2406 19.8128 9.79175C19.8811 9.68898 19.9109 9.56536 19.8968 9.44277H17.539C17.514 9.44071 17.4889 9.44655 17.4674 9.45947C17.4459 9.47238 17.4289 9.49172 17.419 9.51476C17.3006 9.74692 17.1306 9.9489 16.9221 10.1052C16.7136 10.2616 16.4721 10.3681 16.216 10.4167C15.8588 10.4904 15.4903 10.4904 15.1331 10.4167C14.8262 10.3707 14.5352 10.2503 14.2856 10.0659C14.0359 9.88143 13.8353 9.63866 13.7012 9.35877C13.5959 9.13027 13.527 8.88666 13.4972 8.63682V8.25184H19.9928ZM13.6412 6.51994C13.6929 6.32723 13.7574 6.13816 13.8342 5.95397C13.9617 5.63888 14.1791 5.36829 14.4594 5.17589C14.7396 4.9835 15.0702 4.87783 15.4101 4.87204C15.7652 4.8378 16.1234 4.88711 16.456 5.01603C16.7577 5.13154 17.0222 5.32694 17.2212 5.5813C17.4203 5.83567 17.5464 6.1394 17.586 6.45995V6.71193L13.6412 6.74793C13.6371 6.67199 13.6371 6.59588 13.6412 6.51994ZM18.0559 0.505296H13.0522V1.94921L18.0559 1.93721V0.505296Z" fill="#6563FF"/>
</svg>
