<svg width="20" height="13" viewBox="0 0 20 13" fill="none" xmlns="http://www.w3.org/2000/svg">
<path fill-rule="evenodd" clip-rule="evenodd" d="M5.89894 1.90603C4.72333 1.90603 3.66303 2.6129 3.21087 3.69808C2.79831 4.68823 2.24148 7.14294 1.98975 8.31496C1.92005 8.63956 1.89106 8.91831 1.91342 9.16867C1.98838 10.0072 2.24829 10.4078 2.49109 10.6136C2.74602 10.8298 3.13323 10.9597 3.69893 10.9597C4.3217 10.9597 4.90054 10.6389 5.23062 10.1107L6.79803 7.60287L8.88194 4.1297L8.39599 3.31982C8.39599 3.31981 8.39599 3.31983 8.39599 3.31982C7.86971 2.44272 6.92183 1.90603 5.89894 1.90603ZM9.99334 2.27839C9.11561 0.863193 7.5676 0 5.89894 0C3.95387 0 2.19956 1.16954 1.45145 2.96499C0.955701 4.15481 0.362811 6.8132 0.126225 7.91479C0.0350124 8.33945 -0.0308886 8.8253 0.014961 9.33831C0.120545 10.5197 0.528693 11.4488 1.25846 12.0675C1.97612 12.676 2.866 12.8657 3.69893 12.8657C4.97888 12.8657 6.16855 12.2063 6.84693 11.1209L8.41896 8.60573L8.42801 8.59095L9.99334 5.98208L11.5587 8.59095L11.5677 8.60573L13.1397 11.1209C13.8181 12.2063 15.0077 12.8657 16.2877 12.8657C17.2243 12.8657 18.1978 12.5986 18.9289 11.831C19.6539 11.0697 20 9.96301 20 8.57714C20 7.69779 19.6665 6.41751 19.3574 5.39264C19.0352 4.3245 18.6875 3.37239 18.5807 3.08472C18.5558 3.01766 18.526 2.94103 18.4899 2.85977C17.7179 1.12392 15.9945 0 14.0877 0C12.4191 0 10.8711 0.863203 9.99334 2.27839ZM11.1047 4.12971L13.1886 7.60287L14.756 10.1107C15.0861 10.6389 15.6649 10.9597 16.2877 10.9597C16.875 10.9597 17.281 10.7975 17.5487 10.5165C17.8224 10.2292 18.094 9.66815 18.094 8.57714C18.094 8.02038 17.8513 6.9998 17.5325 5.9431C17.2269 4.92976 16.8947 4.01963 16.794 3.74851C16.7762 3.70073 16.7619 3.66495 16.7483 3.63427C16.2818 2.58534 15.2402 1.90603 14.0877 1.90603C13.0648 1.90603 12.1169 2.44272 11.5907 3.31985L11.1047 4.12971Z" fill="#3747D6"/>
</svg>
