<svg width="1648" height="843" viewBox="0 0 1648 843" fill="none" xmlns="http://www.w3.org/2000/svg">
<g opacity="0.4">
<path opacity="0.4" d="M1315.27 532C1316.04 530.667 1317.96 530.667 1318.73 532L1358.57 601C1359.34 602.333 1358.38 604 1356.84 604H1277.16C1275.62 604 1274.66 602.333 1275.43 601L1315.27 532Z" fill="#DD7886"/>
<path opacity="0.4" d="M1518.14 278.703C1519.34 275.018 1524.55 275.018 1525.75 278.703L1533.63 302.932C1534.16 304.579 1535.7 305.695 1537.43 305.695H1562.91C1566.79 305.695 1568.4 310.654 1565.26 312.932L1544.65 327.902C1543.25 328.92 1542.66 330.726 1543.2 332.375L1551.07 356.599C1552.27 360.284 1548.05 363.349 1544.92 361.072L1524.3 346.097C1522.89 345.079 1521 345.079 1519.6 346.097L1498.98 361.072C1495.84 363.349 1491.62 360.284 1492.82 356.599L1500.7 332.375C1501.23 330.726 1500.64 328.92 1499.24 327.902L1478.63 312.932C1475.49 310.654 1477.1 305.695 1480.98 305.695H1506.46C1508.19 305.695 1509.73 304.579 1510.27 302.932L1518.14 278.703Z" fill="#E8E8EA"/>
<ellipse opacity="0.4" cx="1531.11" cy="569" rx="40.0173" ry="40" fill="#22BDEA"/>
<ellipse opacity="0.4" cx="1450.08" cy="68" rx="44.019" ry="44" fill="#D8C1EB"/>
<path opacity="0.4" d="M1484.27 746C1485.04 744.667 1486.96 744.667 1487.73 746L1527.57 815C1528.34 816.333 1527.38 818 1525.84 818H1446.16C1444.62 818 1443.66 816.333 1444.43 815L1484.27 746Z" fill="#D9D9D9"/>
<g opacity="0.4">
<path d="M1612.38 682.498L1620.75 657.709H1642.44V651.084H1616L1606.1 680.376L1612.38 682.498Z" fill="#B1B1C5"/>
<path d="M1556.93 740C1554.54 740 1552.6 738.058 1552.6 735.663C1552.6 733.267 1554.54 731.325 1556.93 731.325C1559.33 731.325 1561.27 733.267 1561.27 735.663C1561.27 738.058 1559.33 740 1556.93 740Z" fill="#B1B1C5"/>
<path d="M1601.38 740C1598.99 740 1597.05 738.058 1597.05 735.663C1597.05 733.267 1598.99 731.325 1601.38 731.325C1603.78 731.325 1605.72 733.267 1605.72 735.663C1605.72 738.058 1603.78 740 1601.38 740Z" fill="#B1B1C5"/>
<path d="M1627.4 677.108H1532L1550.18 729.157H1611.51L1627.4 677.108Z" fill="#EAEAEA"/>
<path d="M1577.52 714.983L1565.41 702.877L1567.76 700.529L1577.1 709.872L1592.15 688.957L1594.84 690.896L1577.52 714.983Z" fill="#5450F7"/>
<path d="M1643.66 658.675C1641.27 658.675 1639.33 656.733 1639.33 654.337C1639.33 651.942 1641.27 650 1643.66 650C1646.06 650 1648 651.942 1648 654.337C1648 656.733 1646.06 658.675 1643.66 658.675Z" fill="#D9D9D9"/>
</g>
</g>
<g opacity="0.4">
<path opacity="0.4" d="M240.196 11.7082C241.393 8.02295 246.607 8.02296 247.804 11.7082L255.675 35.9311C256.21 37.5792 257.746 38.695 259.479 38.695H284.948C288.823 38.695 290.434 43.6535 287.3 45.9311L266.694 60.9017C265.292 61.9203 264.706 63.7257 265.241 65.3738L273.112 89.5968C274.309 93.282 270.091 96.3465 266.956 94.0689L246.351 79.0983C244.949 78.0797 243.051 78.0797 241.649 79.0983L221.044 94.0689C217.909 96.3465 213.691 93.282 214.888 89.5967L222.759 65.3738C223.294 63.7257 222.708 61.9203 221.306 60.9017L200.7 45.9311C197.566 43.6535 199.177 38.695 203.052 38.695H228.521C230.254 38.695 231.79 37.5792 232.325 35.9311L240.196 11.7082Z" fill="#22BDEA"/>
<path opacity="0.4" d="M244.196 742.708C245.393 739.023 250.607 739.023 251.804 742.708L259.675 766.931C260.21 768.579 261.746 769.695 263.479 769.695H288.948C292.823 769.695 294.434 774.654 291.3 776.931L270.694 791.902C269.292 792.92 268.706 794.726 269.241 796.374L277.112 820.597C278.309 824.282 274.091 827.346 270.956 825.069L250.351 810.098C248.949 809.08 247.051 809.08 245.649 810.098L225.044 825.069C221.909 827.346 217.691 824.282 218.888 820.597L226.759 796.374C227.294 794.726 226.708 792.92 225.306 791.902L204.7 776.931C201.566 774.654 203.177 769.695 207.052 769.695H232.521C234.254 769.695 235.79 768.579 236.325 766.931L244.196 742.708Z" fill="#A2A0F5"/>
<circle opacity="0.4" cx="40" cy="161" r="40" fill="#D0D0F6"/>
<circle opacity="0.4" cx="232.5" cy="448.5" r="39.5" fill="#E8E8EA"/>
<path opacity="0.4" d="M360.268 341C361.038 339.667 362.962 339.667 363.732 341L403.569 410C404.339 411.333 403.377 413 401.837 413H322.163C320.623 413 319.661 411.333 320.431 410L360.268 341Z" fill="#DD7886"/>
<g opacity="0.4">
<path d="M84.3802 281.498L92.7549 256.709H114.439V250.084H88.0007L78.1054 279.376L84.3802 281.498Z" fill="#B1B1C5"/>
<path d="M28.9331 339C26.5381 339 24.5966 337.058 24.5966 334.663C24.5966 332.267 26.5381 330.325 28.9331 330.325C31.328 330.325 33.2695 332.267 33.2695 334.663C33.2695 337.058 31.328 339 28.9331 339Z" fill="#B1B1C5"/>
<path d="M73.3823 339C70.9873 339 69.0458 337.058 69.0458 334.663C69.0458 332.267 70.9873 330.325 73.3823 330.325C75.7773 330.325 77.7188 332.267 77.7188 334.663C77.7188 337.058 75.7773 339 73.3823 339Z" fill="#B1B1C5"/>
<path d="M99.4023 276.108H4.00037L22.185 328.157H83.5149L99.4023 276.108Z" fill="#EAEAEA"/>
<path d="M49.5171 313.983L37.4141 301.877L39.7613 299.529L49.1021 308.872L64.15 287.957L66.8441 289.896L49.5171 313.983Z" fill="#5450F7"/>
<path d="M115.664 257.675C113.269 257.675 111.327 255.733 111.327 253.337C111.327 250.942 113.269 249 115.664 249C118.059 249 120 250.942 120 253.337C120 255.733 118.059 257.675 115.664 257.675Z" fill="#D9D9D9"/>
</g>
<line opacity="0.4" x1="398.414" y1="488.414" x2="183.454" y2="703.375" stroke="black" stroke-width="4"/>
<line opacity="0.4" x1="398.414" y1="77.4142" x2="183.454" y2="292.375" stroke="#E9E9ED" stroke-width="4"/>
</g>
<line opacity="0.4" x1="1463.41" y1="615.414" x2="1248.45" y2="830.375" stroke="#E8E8EA" stroke-width="4"/>
<line opacity="0.4" x1="1533.41" y1="128.414" x2="1318.45" y2="343.375" stroke="black" stroke-width="4"/>
</svg>
